<svg width="100" height="22" viewBox="0 0 100 22" fill="none" xmlns="http://www.w3.org/2000/svg">
<g clip-path="url(#clip0_192_356)">
<path d="M57.8552 6.6C58.7489 2.98853 56.5695 0 51.2308 0H39.6598L35.3246 17.6631L37.841 22.0079H46.0725C51.466 22.0079 55.6444 19.4767 56.7184 15.0767C57.2594 12.8215 56.6322 11.2444 55.2211 10.4559V10.4007C56.5593 9.52881 57.5048 8.16451 57.8552 6.6ZM50.7997 14.9348C50.5802 15.8573 49.9608 16.8036 47.3973 16.8036H42.1449L43.0621 13.0186H48.291C50.8232 13.0108 51.0113 13.9806 50.7683 14.9348H50.7997ZM51.8501 6.71828C51.662 7.42796 51.1211 8.29534 48.9103 8.29534H44.2067L44.9906 5.22007H49.6943C51.9285 5.2043 52.0383 5.92975 51.8501 6.71828Z" fill="#14A0FF"/>
<path d="M65.138 13.4839H75.6742L76.8737 8.27957H66.408L67.2233 5.2043H77.5871L78.7865 0H61.7749L56.3813 22H75.6507L76.9129 16.7957H64.3619L65.138 13.4839Z" fill="#14A0FF"/>
<path d="M80.2603 0L79.053 5.2043H85.3481L81.2167 22H87.8253L91.9646 5.2043H98.7065L100 0H80.2603Z" fill="#14A0FF"/>
<path d="M6.91439 22H0.250862L3.13578 10.2509L3.80213 8.4767L2.03826 10.2509L0.0783945 12.2459L0 6.37921L6.91439 0H12.3001L6.91439 22Z" fill="white"/>
<path d="M30.9737 12.8846L28.8492 9.26523L39.1581 0H29.5547L25.635 3.78495L12.3393 16.0466L5.95801 22H15.0439L21.8721 15.8731L24.169 19.8158C24.953 20.8093 26.0584 22.0158 30.7463 22.0158H36.234L30.9815 12.8767L30.9737 12.8846Z" fill="white"/>
<path d="M24.8981 2.57061V2.5233C24.3099 1.69792 23.5251 1.03434 22.6156 0.593463C21.7061 0.152584 20.701 -0.0514793 19.6927 -1.08033e-07H12.598L17.8897 9.05233L24.8981 2.57061Z" fill="white"/>
</g>
<defs>
<clipPath id="clip0_192_356">
<rect width="100" height="22" fill="white"/>
</clipPath>
</defs>
</svg>
