<svg width="104" height="45" viewBox="0 0 104 45" fill="none" xmlns="http://www.w3.org/2000/svg">
<rect width="104" height="45" rx="22.5" fill="url(#paint0_linear_195_425)"/>
<path d="M50.556 23.7364V28.7809H47.6978V12.5863H53.0211C58.0724 12.5863 60.2188 14.415 60.2188 18.069C60.2188 21.8389 57.7039 23.7364 53.0211 23.7364H50.556ZM50.556 15.248V21.0784H53.2286C55.8794 21.0784 57.2497 20.1983 57.2497 18.0002C57.2497 16.0122 56.0618 15.248 53.2715 15.248H50.556Z" fill="white"/>
<path d="M61.7276 18.0208C62.4824 17.4413 63.8526 16.9813 65.8203 16.9813C69.1582 16.9813 70.8036 18.1367 70.8036 21.146V28.7797H68.2887V26.6975C67.7414 28.0412 66.3461 28.9644 64.518 28.9644C62.2105 28.9644 60.8367 27.6464 60.8367 25.3792C60.8367 22.7429 62.7327 22.0004 65.5448 22.0004H68.1277V21.4901C68.1277 19.8458 67.3515 19.3388 65.8203 19.3388C63.7167 19.3388 62.5074 20.1718 61.7276 21.3995V18.0208ZM68.1277 24.7095V23.7606H65.8668C64.289 23.7606 63.5343 24.0612 63.5343 25.104C63.5343 25.984 64.1746 26.5382 65.3624 26.5382C67.1688 26.5345 68.0132 25.4951 68.1277 24.7095Z" fill="white"/>
<path d="M72.1279 17.2148H75.1224L78.2525 25.1491L80.8106 17.2148H83.6439L79.0719 30.0089C78.0665 32.7865 77.0363 33.4094 75.5302 33.4094C74.8219 33.4094 74.0454 33.203 73.702 32.8987V30.3783C74.0454 30.726 74.5713 30.9578 75.0723 30.9578C75.895 30.9578 76.5105 30.4037 76.9469 28.8285L72.1279 17.2148Z" fill="white"/>
<path d="M30.502 9C32.3041 9 32.8704 10.3179 33.3455 11.6337C33.545 12.1924 38.2281 25.268 38.3689 25.6604C38.4064 25.7699 38.3811 25.9496 38.2159 26.0147C38.0498 26.0787 35.6166 27.0434 35.4819 27.095C35.3472 27.1477 35.1962 27.0713 35.1476 26.9339C35.0969 26.7986 34.087 23.948 33.9735 23.6299H27.0325C26.9231 23.948 25.901 26.8048 25.8554 26.9339C25.8088 27.0651 25.664 27.1539 25.5201 27.095C25.3763 27.0372 22.934 26.0725 22.7881 26.0147C22.6483 25.9589 22.5845 25.7968 22.6331 25.6604C22.8053 25.1709 27.4175 12.305 27.6525 11.6337C28.1104 10.3375 28.6959 9 30.502 9ZM22.2624 32.3965C22.1165 32.3965 22 32.5204 22 32.6712V35.7273C22 35.8781 22.1165 36 22.2624 36H38.7346C38.8835 36 39 35.8781 39 35.7273V32.6712C39 32.5204 38.8835 32.3965 38.7346 32.3965H22.2624ZM30.4858 13.2697L28.1397 20.4529H32.8704L30.5162 13.2697H30.4858Z" fill="white"/>
<defs>
<linearGradient id="paint0_linear_195_425" x1="52" y1="0" x2="52" y2="45" gradientUnits="userSpaceOnUse">
<stop stop-color="#EE2A23"/>
<stop offset="1" stop-color="#BC261D"/>
</linearGradient>
</defs>
</svg>
