<svg width="24" height="24" viewBox="0 0 24 24" fill="none" xmlns="http://www.w3.org/2000/svg">
<g opacity="0.5">
<path fill-rule="evenodd" clip-rule="evenodd" d="M18.75 6C18.75 5.403 18.513 4.83075 18.0908 4.40925C17.6693 3.987 17.097 3.75 16.5 3.75C13.626 3.75 7.374 3.75 4.5 3.75C3.903 3.75 3.33075 3.987 2.90925 4.40925C2.487 4.83075 2.25 5.403 2.25 6V21C2.25 21.597 2.487 22.1693 2.90925 22.5908C3.33075 23.013 3.903 23.25 4.5 23.25H16.5C17.097 23.25 17.6693 23.013 18.0908 22.5908C18.513 22.1693 18.75 21.597 18.75 21V6ZM17.25 6V21C17.25 21.1987 17.1713 21.39 17.0303 21.5303C16.89 21.6713 16.6987 21.75 16.5 21.75H4.5C4.30125 21.75 4.11 21.6713 3.96975 21.5303C3.82875 21.39 3.75 21.1987 3.75 21V6C3.75 5.80125 3.82875 5.61 3.96975 5.46975C4.11 5.32875 4.30125 5.25 4.5 5.25H16.5C16.6987 5.25 16.89 5.32875 17.0303 5.46975C17.1713 5.61 17.25 5.80125 17.25 6ZM21.75 19.5V3C21.75 2.403 21.513 1.83075 21.0908 1.40925C20.6693 0.986998 20.097 0.75 19.5 0.75C15.7013 0.75 6 0.75 6 0.75C5.586 0.75 5.25 1.086 5.25 1.5C5.25 1.914 5.586 2.25 6 2.25H19.5C19.6987 2.25 19.89 2.32875 20.0303 2.46975C20.1713 2.61 20.25 2.80125 20.25 3V19.5C20.25 19.914 20.586 20.25 21 20.25C21.414 20.25 21.75 19.914 21.75 19.5ZM6 17.25H15C15.414 17.25 15.75 16.914 15.75 16.5C15.75 16.086 15.414 15.75 15 15.75H6C5.586 15.75 5.25 16.086 5.25 16.5C5.25 16.914 5.586 17.25 6 17.25ZM6 14.25H15C15.414 14.25 15.75 13.914 15.75 13.5C15.75 13.086 15.414 12.75 15 12.75H6C5.586 12.75 5.25 13.086 5.25 13.5C5.25 13.914 5.586 14.25 6 14.25ZM6 11.25H10.5C10.914 11.25 11.25 10.914 11.25 10.5C11.25 10.086 10.914 9.75 10.5 9.75H6C5.586 9.75 5.25 10.086 5.25 10.5C5.25 10.914 5.586 11.25 6 11.25Z" fill="black"/>
</g>
</svg>
