<svg width="104" height="45" viewBox="0 0 104 45" fill="none" xmlns="http://www.w3.org/2000/svg">
<rect width="104" height="45" rx="22.5" fill="url(#paint0_linear_195_469)"/>
<g clip-path="url(#clip0_195_469)">
<path fill-rule="evenodd" clip-rule="evenodd" d="M25.2948 15.0409C23.7436 14.8786 22.1798 15.1975 20.8185 15.9537C19.4571 16.7098 18.365 17.8662 17.6922 19.2638C17.0195 20.6614 16.7991 22.2316 17.0614 23.7586C17.3236 25.2857 18.0557 26.6946 19.157 27.7916C20.2582 28.8887 21.6745 29.6201 23.2113 29.8853C24.7481 30.1505 26.3299 29.9365 27.7392 29.2727C29.1485 28.6088 30.3162 27.5278 31.0818 26.1782C31.8474 24.8285 32.1733 23.2765 32.0147 21.7354C31.8402 20.0224 31.0767 18.4215 29.8527 17.2021C28.6287 15.9828 27.0191 15.2196 25.2948 15.0409ZM25.0501 26.4659C24.2158 26.577 23.3674 26.4258 22.6242 26.0333C21.8809 25.6409 21.2802 25.027 20.9064 24.278C20.5325 23.529 20.4044 22.6824 20.5401 21.8574C20.6757 21.0323 21.0683 20.2702 21.6625 19.6781C22.2568 19.0861 23.023 18.6938 23.8533 18.5566C24.6837 18.4193 25.5364 18.5438 26.2918 18.9128C27.0472 19.2817 27.6672 19.8764 28.0646 20.6133C28.4621 21.3502 28.6171 22.1923 28.5078 23.0212C28.393 23.8931 27.9921 24.7031 27.3671 25.3258C26.742 25.9485 25.9277 26.3492 25.0501 26.4659ZM36.0529 15.3376C35.791 15.3382 35.5326 15.3968 35.2964 15.5091C35.0602 15.6214 34.8522 15.7846 34.6875 15.9867C34.5229 16.1889 34.4056 16.425 34.3444 16.6779C34.2831 16.9307 34.2794 17.194 34.3335 17.4484C34.4992 18.2728 35.2745 18.836 36.1191 18.836H41.0204L33.3928 28.8608C33.3364 28.9348 33.3019 29.0229 33.2931 29.1153C33.2843 29.2077 33.3016 29.3007 33.343 29.3839C33.3845 29.4671 33.4484 29.5372 33.5277 29.5863C33.607 29.6355 33.6986 29.6617 33.792 29.662H45.7566C46.6006 29.662 47.3765 29.0989 47.5421 28.2744C47.5962 28.02 47.5926 27.7568 47.5314 27.504C47.4702 27.2512 47.353 27.0151 47.1884 26.8129C47.0238 26.6107 46.8159 26.4475 46.5797 26.3351C46.3436 26.2227 46.0853 26.164 45.8235 26.1633H39.8516L47.4733 16.1463C47.5302 16.0716 47.5651 15.9826 47.574 15.8893C47.5828 15.796 47.5654 15.7021 47.5235 15.6181C47.4816 15.5341 47.417 15.4633 47.3369 15.4138C47.2567 15.3642 47.1643 15.3379 47.07 15.3376H36.0529ZM83.8626 15.3779C83.4665 15.4715 83.1143 15.6965 82.8645 16.0157C82.6146 16.335 82.4819 16.7293 82.4883 17.1337V22.9585L72.9847 15.4476C72.9101 15.3888 72.8204 15.3522 72.7258 15.3418C72.6313 15.3314 72.5357 15.3478 72.45 15.389C72.3644 15.4302 72.2922 15.4946 72.2418 15.5748C72.1914 15.6549 72.1648 15.7476 72.165 15.8421V27.869C72.1586 28.2734 72.2913 28.6678 72.5411 28.987C72.791 29.3063 73.1432 29.5313 73.5393 29.6248C73.7965 29.681 74.0631 29.6791 74.3195 29.6194C74.5759 29.5596 74.8156 29.4434 75.0207 29.2793C75.2259 29.1153 75.3913 28.9077 75.5049 28.6716C75.6185 28.4356 75.6772 28.1773 75.6768 27.9158V22.0405L85.1806 29.5516C85.2551 29.6103 85.3448 29.6469 85.4394 29.6573C85.5339 29.6676 85.6295 29.6513 85.7151 29.6101C85.8007 29.5689 85.8728 29.5045 85.9232 29.4244C85.9736 29.3443 86.0002 29.2517 86 29.1573V17.0864C86.0003 16.8249 85.9415 16.5666 85.8279 16.3307C85.7143 16.0948 85.5488 15.8872 85.3437 15.7232C85.1386 15.5593 84.899 15.4431 84.6427 15.3834C84.3863 15.3236 84.1197 15.3217 83.8626 15.3779ZM59.1176 18.5012C63.1374 18.5012 66.141 20.6109 66.141 22.498C66.141 24.3852 63.1374 26.4949 59.1176 26.4949C55.0978 26.4949 52.0943 24.3852 52.0943 22.498C52.0943 20.6109 55.0978 18.5012 59.1176 18.5012ZM59.1176 15.0028C53.2992 15.0028 48.5825 18.3586 48.5825 22.498C48.5825 26.6375 53.2992 29.9932 59.1176 29.9932C64.9361 29.9932 69.6526 26.6375 69.6526 22.498C69.6526 18.3586 64.936 15.0028 59.1176 15.0028Z" fill="white"/>
</g>
<defs>
<linearGradient id="paint0_linear_195_469" x1="52" y1="0" x2="52" y2="45" gradientUnits="userSpaceOnUse">
<stop stop-color="#0069FF"/>
<stop offset="1" stop-color="#00409B"/>
</linearGradient>
<clipPath id="clip0_195_469">
<rect width="69" height="15" fill="white" transform="translate(17 15)"/>
</clipPath>
</defs>
</svg>
