<svg width="104" height="45" viewBox="0 0 104 45" fill="none" xmlns="http://www.w3.org/2000/svg">
<rect width="104" height="45" rx="22.5" fill="url(#paint0_linear_195_384)"/>
<path d="M53.5895 24.7364V29.7809H50.7312V13.5863H56.0546C61.1058 13.5863 63.2523 15.415 63.2523 19.069C63.2523 22.8389 60.7373 24.7364 56.0546 24.7364H53.5895ZM53.5895 16.248V22.0784H56.262C58.9129 22.0784 60.2831 21.1983 60.2831 19.0002C60.2831 17.0122 59.0953 16.248 56.3049 16.248H53.5895Z" fill="white"/>
<path d="M64.7611 19.0207C65.5158 18.4412 66.8861 17.9813 68.8537 17.9813C72.1916 17.9813 73.837 19.1366 73.837 22.1459V29.7797H71.3221V27.6975C70.7748 29.0411 69.3795 29.9644 67.5514 29.9644C65.244 29.9644 63.8701 28.6464 63.8701 26.3791C63.8701 23.7428 65.7662 23.0004 68.5783 23.0004H71.1611V22.49C71.1611 20.8457 70.3849 20.3387 68.8537 20.3387C66.7502 20.3387 65.5409 21.1717 64.7611 22.3995V19.0207ZM71.1611 25.7094V24.7605H68.9002C67.3225 24.7605 66.5677 25.0611 66.5677 26.1039C66.5677 26.984 67.208 27.5381 68.3959 27.5381C70.2022 27.5345 71.0467 26.495 71.1611 25.7094Z" fill="white"/>
<path d="M75.1614 18.2149H78.1559L81.286 26.1492L83.8441 18.2149H86.6773L82.1054 31.009C81.0999 33.7865 80.0698 34.4095 78.5636 34.4095C77.8554 34.4095 77.0789 34.203 76.7355 33.8988V31.3784C77.0789 31.7261 77.6047 31.9579 78.1057 31.9579C78.9284 31.9579 79.544 31.4037 79.9804 29.8286L75.1614 18.2149Z" fill="white"/>
<path d="M24.5728 19.034V22.5866L29.2268 25.538L40.3638 17.2307C39.9702 16.3506 39.4764 15.5285 38.8969 14.7715L29.2268 21.9854L24.5728 19.034Z" fill="white"/>
<path d="M38.6224 22.0769C38.6257 22.1602 38.6257 22.2471 38.6257 22.3304C38.6257 27.5777 34.408 31.8438 29.2278 31.8438C24.0476 31.8438 19.8263 27.5777 19.8263 22.3304C19.8263 17.0831 24.044 12.817 29.2242 12.817C31.1882 12.817 33.0127 13.4291 34.5225 14.4794L36.8978 12.7047C34.8015 10.9883 32.129 9.95978 29.2205 9.95978C22.4698 9.95978 17 15.5004 17 22.334C17 29.1676 22.4735 34.7083 29.2205 34.7083C35.9712 34.7083 41.4414 29.1676 41.4414 22.334C41.4414 21.5771 41.3734 20.8346 41.2445 20.1178L38.6224 22.0769Z" fill="white"/>
<defs>
<linearGradient id="paint0_linear_195_384" x1="52" y1="45" x2="52" y2="0" gradientUnits="userSpaceOnUse">
<stop stop-color="#67CDB0"/>
<stop offset="1" stop-color="#80CB67"/>
</linearGradient>
</defs>
</svg>
