<svg width="104" height="45" viewBox="0 0 104 45" fill="none" xmlns="http://www.w3.org/2000/svg">
<rect width="104" height="45" rx="22.5" fill="url(#paint0_linear_195_448)"/>
<path d="M53.0258 15.9594H44.97V27.9594H48.8883V24.7313H53.0226C53.9943 24.7313 54.9405 24.7047 55.8613 24.4293C57.6459 23.8992 58.97 22.4125 58.97 20.3957C58.97 18.3789 57.6712 16.9159 55.9153 16.3384C54.9436 16.0097 54.0229 15.9594 53.0226 15.9594H53.0258ZM48.8915 21.909V18.8587H52.4606C53.2163 18.8587 53.6513 18.9356 54.0006 19.0601C54.6229 19.2881 54.9182 19.8152 54.9182 20.372C54.9182 20.9761 54.5658 21.5566 53.8926 21.758C53.5687 21.8587 53.1908 21.909 52.4606 21.909H48.8915Z" fill="white"/>
<path d="M65.3818 23.5734L67.329 18.7343H67.6407L69.5879 23.5734H65.3818ZM64.3668 26.221H70.5797L71.3692 27.9594H75.97L70.4636 15.9594H64.4762L58.97 27.9594H63.6005L64.3635 26.221H64.3668Z" fill="white"/>
<path d="M84.8019 15.9594L81.6929 21.4293H81.5597L78.4229 15.9594H73.97L79.6368 24.7817V27.9594H83.5911V24.4796L88.97 15.9594H84.8019Z" fill="white"/>
<path d="M14.97 11.9594H35.97V23.0236C35.97 25.8602 34.5242 28.4819 32.181 29.9001L25.4699 33.9594L18.7589 29.9001C16.4126 28.4819 14.97 25.8602 14.97 23.0236V11.9594Z" fill="#FFDD2D"/>
<path fill-rule="evenodd" clip-rule="evenodd" d="M20.9732 16.9594V20.7568C21.4485 20.1687 22.3084 19.7719 23.2946 19.7719H24.3647V24.1893C24.3647 25.3652 24.0737 26.3926 23.6405 26.9594H28.2994C27.8694 26.3926 27.5784 25.3652 27.5784 24.1928V19.7754H28.6486C29.6347 19.7754 30.498 20.1722 30.97 20.7603V16.9629H20.97L20.9732 16.9594Z" fill="#333333"/>
<defs>
<linearGradient id="paint0_linear_195_448" x1="52" y1="0" x2="52" y2="45" gradientUnits="userSpaceOnUse">
<stop stop-color="#3D3D3D"/>
<stop offset="1" stop-color="#252525"/>
</linearGradient>
</defs>
</svg>
