<svg width="104" height="45" viewBox="0 0 104 45" fill="none" xmlns="http://www.w3.org/2000/svg">
<rect width="104" height="45" rx="22.5" fill="url(#paint0_linear_195_405)"/>
<path d="M55.556 23.7364V28.7809H52.6978V12.5863H58.0211C63.0724 12.5863 65.2188 14.415 65.2188 18.069C65.2188 21.8389 62.7039 23.7364 58.0211 23.7364H55.556ZM55.556 15.248V21.0784H58.2286C60.8794 21.0784 62.2497 20.1983 62.2497 18.0002C62.2497 16.0122 61.0618 15.248 58.2715 15.248H55.556Z" fill="white"/>
<path d="M66.7276 18.0208C67.4824 17.4413 68.8526 16.9813 70.8203 16.9813C74.1582 16.9813 75.8036 18.1367 75.8036 21.146V28.7797H73.2887V26.6975C72.7414 28.0412 71.3461 28.9644 69.518 28.9644C67.2105 28.9644 65.8367 27.6464 65.8367 25.3792C65.8367 22.7429 67.7327 22.0004 70.5448 22.0004H73.1277V21.4901C73.1277 19.8458 72.3515 19.3388 70.8203 19.3388C68.7167 19.3388 67.5074 20.1718 66.7276 21.3995V18.0208ZM73.1277 24.7095V23.7606H70.8668C69.289 23.7606 68.5343 24.0612 68.5343 25.104C68.5343 25.984 69.1746 26.5382 70.3624 26.5382C72.1688 26.5345 73.0132 25.4951 73.1277 24.7095Z" fill="white"/>
<path d="M77.1279 17.2148H80.1224L83.2525 25.1491L85.8106 17.2148H88.6439L84.0719 30.0089C83.0665 32.7865 82.0363 33.4094 80.5302 33.4094C79.8219 33.4094 79.0454 33.203 78.702 32.8987V30.3783C79.0454 30.726 79.5713 30.9578 80.0723 30.9578C80.895 30.9578 81.5105 30.4037 81.9469 28.8285L77.1279 17.2148Z" fill="white"/>
<path fill-rule="evenodd" clip-rule="evenodd" d="M21.9404 13L20.2042 17.5008H44.2638L46 13H21.9404ZM19.3356 19.7501L17.5994 24.2499H41.659L43.3952 19.7501H19.3356ZM16.7362 26.5003L15 31H39.0596L40.7947 26.5003H16.7362Z" fill="white"/>
<defs>
<linearGradient id="paint0_linear_195_405" x1="52" y1="0" x2="52" y2="45" gradientUnits="userSpaceOnUse">
<stop stop-color="#009FDF"/>
<stop offset="1" stop-color="#235EFC"/>
</linearGradient>
</defs>
</svg>
