<svg width="329" height="54" viewBox="0 0 329 54" fill="none" xmlns="http://www.w3.org/2000/svg">
<rect width="328.774" height="53.7569" rx="8" fill="url(#paint0_linear_195_411)"/>
<path d="M88.2675 26.6333C88.2675 27.5842 88.3613 28.3816 88.554 29.0255C88.7615 29.6693 89.0431 30.1844 89.3987 30.5707C89.7692 30.9571 90.2139 31.2344 90.7276 31.3978C91.2414 31.5662 91.8095 31.6504 92.4418 31.6504C93.0741 31.6504 93.6324 31.5662 94.1362 31.3978C94.6352 31.2295 95.06 30.9521 95.4058 30.5707C95.7516 30.1844 96.0135 29.6693 96.1962 29.0255C96.3741 28.3816 96.4679 27.5842 96.4679 26.6333C96.4679 25.6824 96.3741 24.8454 96.1814 24.2015C96.0036 23.5478 95.7368 23.0178 95.391 22.6216C95.0452 22.2254 94.6154 21.9381 94.1017 21.7747C93.5879 21.6063 93.005 21.5221 92.3529 21.5221C90.9549 21.5221 89.9224 21.9332 89.2555 22.7553C88.6034 23.5775 88.2724 24.8702 88.2724 26.6333H88.2675ZM86 26.5937C86 24.2015 86.5335 22.4483 87.5956 21.329C88.6726 20.1997 90.3127 19.6302 92.5208 19.6302C94.729 19.6302 96.2259 20.1948 97.2139 21.329C98.2118 22.4483 98.7157 24.2015 98.7157 26.5937C98.7157 27.8517 98.5675 28.9264 98.271 29.813C97.9895 30.6896 97.5794 31.4078 97.041 31.9724C96.5025 32.5271 95.8356 32.9282 95.0403 33.1858C94.2597 33.4285 93.3656 33.5523 92.3677 33.5523C91.3698 33.5523 90.5547 33.4285 89.7692 33.1858C88.9887 32.9282 88.3119 32.5221 87.7488 31.9724C87.1955 31.4078 86.7657 30.6847 86.4594 29.813C86.1531 28.9264 86 27.8517 86 26.5937Z" fill="white"/>
<path d="M101.339 23.0426H109.994V33.3443H107.973V24.8949H103.374V33.3443H101.339V23.0426Z" fill="white"/>
<path d="M111.94 31.2047C112.093 31.2542 112.261 31.2839 112.439 31.2839C112.647 31.2839 112.844 31.2344 113.037 31.1304C113.244 31.0165 113.427 30.7342 113.595 30.2835C113.763 29.8328 113.901 29.1543 114.02 28.238C114.134 27.3267 114.213 26.0638 114.252 24.4591L114.292 23.0525H121.603V33.3492H119.582V24.9197H116.119L116.1 25.519C116.05 27.2177 115.932 28.5897 115.754 29.6446C115.576 30.6995 115.344 31.5167 115.062 32.0962C114.781 32.6756 114.445 33.0669 114.064 33.2749C113.694 33.4829 113.284 33.582 112.834 33.582C112.656 33.582 112.493 33.577 112.355 33.5622C112.227 33.5473 112.093 33.5176 111.95 33.4681V31.2096L111.94 31.2047Z" fill="white"/>
<path d="M126.083 30.1795C126.083 30.6698 126.227 31.0561 126.508 31.3384C126.79 31.6207 127.264 31.7643 127.931 31.7643C128.815 31.7643 129.462 31.5464 129.872 31.1106C130.282 30.6748 130.49 30.1151 130.49 29.4316V28.6392H128.41C127.961 28.6392 127.585 28.6639 127.274 28.7184C126.978 28.768 126.74 28.8621 126.563 28.9908C126.385 29.1047 126.256 29.2682 126.177 29.4712C126.113 29.6644 126.083 29.9021 126.083 30.1844V30.1795ZM130.584 31.8585C130.327 32.3092 129.932 32.7054 129.393 33.0521C128.855 33.3839 128.183 33.5523 127.373 33.5523C126.281 33.5523 125.451 33.2799 124.873 32.74C124.31 32.1853 124.028 31.4226 124.028 30.4469C124.028 29.3177 124.354 28.5104 125.011 28.0349C125.663 27.5595 126.75 27.3218 128.262 27.3218H130.495V26.4748C130.495 25.7418 130.307 25.2466 129.937 24.989C129.566 24.7315 128.949 24.6027 128.089 24.6027C127.783 24.6027 127.472 24.6324 127.165 24.6968C126.859 24.7612 126.563 24.8454 126.281 24.9494C125.999 25.0534 125.738 25.1723 125.491 25.3159C125.249 25.4447 125.036 25.5784 124.853 25.722V23.5626C125.061 23.4487 125.303 23.3447 125.584 23.2556C125.866 23.1664 126.162 23.0872 126.469 23.0228C126.79 22.9584 127.111 22.9138 127.432 22.8891C127.768 22.8494 128.079 22.8296 128.376 22.8296C129.107 22.8296 129.734 22.894 130.263 23.0228C130.786 23.1367 131.216 23.3398 131.552 23.6221C131.898 23.8945 132.15 24.261 132.303 24.7216C132.456 25.1822 132.535 25.7567 132.535 26.4402V33.3443H130.687L130.594 31.8585H130.584Z" fill="white"/>
<path d="M137.515 24.8949H134.19V23.0426H142.845V24.8949H139.535V33.3443H137.515V24.8949Z" fill="white"/>
<path d="M144.604 23.0426H146.644V27.921C146.644 28.4609 146.629 28.9809 146.604 29.4811C146.58 29.9715 146.555 30.3429 146.525 30.6005L146.604 30.6401C146.822 30.2538 147.049 29.8873 147.276 29.5406C147.518 29.1939 147.77 28.8422 148.027 28.4807L151.722 23.0426H153.57V33.3393H151.549V28.1538C151.564 27.822 151.569 27.505 151.569 27.2078C151.584 26.9008 151.594 26.6185 151.609 26.3609C151.624 26.1034 151.633 25.8904 151.648 25.722L151.609 25.7022C151.441 25.9994 151.238 26.3411 150.991 26.7225C150.749 27.1088 150.497 27.4852 150.24 27.8616L146.471 33.3393H144.604V23.0426Z" fill="white"/>
<path d="M158.683 24.8949H155.353V23.0426H164.008V24.8949H160.698V33.3443H158.683V24.8949Z" fill="white"/>
<path d="M167.787 31.7049C168.02 31.7297 168.242 31.7495 168.459 31.7643H169.422C169.921 31.7643 170.341 31.7346 170.672 31.6702C171.003 31.591 171.27 31.4771 171.463 31.3236C171.67 31.1552 171.809 30.9521 171.888 30.7045C171.976 30.4469 172.021 30.13 172.021 29.7585C172.021 29.4118 171.976 29.1146 171.888 28.872C171.809 28.6293 171.665 28.4262 171.443 28.2727C171.226 28.1191 170.919 28.0102 170.519 27.9458C170.134 27.8666 169.635 27.8319 169.017 27.8319C168.825 27.8319 168.632 27.8467 168.439 27.8715C168.247 27.8864 168.029 27.9012 167.787 27.9309V31.7099V31.7049ZM165.767 23.0426H167.807V26.3213C168.103 26.2965 168.39 26.2767 168.672 26.2619C168.968 26.247 169.299 26.2421 169.674 26.2421C170.455 26.2421 171.122 26.3064 171.675 26.4352C172.228 26.5491 172.683 26.7423 173.039 27.0147C173.399 27.2871 173.661 27.6437 173.829 28.0944C173.997 28.5302 174.081 29.0651 174.081 29.6941C174.081 30.3231 173.997 30.8778 173.829 31.3533C173.661 31.8287 173.384 32.2299 172.999 32.5469C172.614 32.8539 172.1 33.0867 171.463 33.2403C170.835 33.3938 170.06 33.473 169.136 33.473C168.484 33.473 167.866 33.4582 167.288 33.4334C166.71 33.4087 166.207 33.374 165.767 33.3393V23.0426Z" fill="white"/>
<path d="M214.051 21.4131V26.5986H216.388C218.705 26.5986 219.905 25.8161 219.905 23.8598C219.905 22.0916 218.868 21.4131 216.423 21.4131H214.046H214.051ZM214.051 28.9561V33.4383H211.552V19.0457H216.21C220.632 19.0457 222.509 20.6702 222.509 23.9192C222.509 27.1682 220.31 28.9561 216.21 28.9561H214.051Z" fill="white"/>
<path d="M229.425 29.8229V28.981H227.449C226.07 28.981 225.408 29.2484 225.408 30.1746C225.408 30.9571 225.967 31.4474 227.009 31.4474C228.59 31.4474 229.326 30.5213 229.43 29.8229H229.425ZM223.823 23.8747C224.485 23.3596 225.68 22.9485 227.404 22.9485C230.324 22.9485 231.766 23.9738 231.766 26.6532V33.4384H229.568V31.5861C229.089 32.7797 227.869 33.6019 226.268 33.6019C224.248 33.6019 223.047 32.4281 223.047 30.4123C223.047 28.0697 224.707 27.411 227.167 27.411H229.425V26.9553C229.425 25.4942 228.748 25.0436 227.404 25.0436C225.562 25.0436 224.504 25.7865 223.823 26.8761V23.8747Z" fill="white"/>
<path d="M232.922 23.1614H235.541L238.277 30.2141L240.515 23.1614H242.995L238.994 34.5378C238.114 37.0093 237.215 37.559 235.896 37.559C235.279 37.559 234.597 37.3758 234.296 37.1034V34.8647C234.597 35.1718 235.056 35.3798 235.496 35.3798C236.217 35.3798 236.756 34.8895 237.136 33.4879L232.922 23.1614Z" fill="white"/>
<path d="M194.502 13.9999C196.304 13.9999 196.87 15.3178 197.345 16.6336C197.545 17.1924 202.228 30.2679 202.369 30.6604C202.406 30.7698 202.381 30.9496 202.216 31.0146C202.05 31.0787 199.617 32.0433 199.482 32.095C199.347 32.1476 199.196 32.0712 199.148 31.9338C199.097 31.7985 198.087 28.948 197.974 28.6298H191.033C190.923 28.948 189.901 31.8047 189.855 31.9338C189.809 32.065 189.664 32.1538 189.52 32.095C189.376 32.0371 186.934 31.0725 186.788 31.0146C186.648 30.9589 186.584 30.7967 186.633 30.6604C186.805 30.1708 191.417 17.305 191.652 16.6336C192.11 15.3374 192.696 13.9999 194.502 13.9999ZM186.262 37.3964C186.116 37.3964 186 37.5204 186 37.6712V40.7273C186 40.8781 186.116 40.9999 186.262 40.9999H202.735C202.884 40.9999 203 40.8781 203 40.7273V37.6712C203 37.5204 202.884 37.3964 202.735 37.3964H186.262ZM194.486 18.2696L192.14 25.4529H196.87L194.516 18.2696H194.486Z" fill="white"/>
<defs>
<linearGradient id="paint0_linear_195_411" x1="164.387" y1="0" x2="164.387" y2="53.7569" gradientUnits="userSpaceOnUse">
<stop stop-color="#EE2A23"/>
<stop offset="1" stop-color="#BC261D"/>
</linearGradient>
</defs>
</svg>
