<svg width="329" height="54" viewBox="0 0 329 54" fill="none" xmlns="http://www.w3.org/2000/svg">
<rect width="328.774" height="53.7569" rx="8" fill="url(#paint0_linear_195_454)"/>
<path d="M63.2675 26.6333C63.2675 27.5842 63.3613 28.3816 63.554 29.0255C63.7615 29.6693 64.0431 30.1844 64.3987 30.5707C64.7692 30.957 65.2139 31.2344 65.7276 31.3978C66.2414 31.5662 66.8095 31.6504 67.4418 31.6504C68.0741 31.6504 68.6324 31.5662 69.1362 31.3978C69.6352 31.2294 70.06 30.9521 70.4058 30.5707C70.7516 30.1844 71.0135 29.6693 71.1962 29.0255C71.3741 28.3816 71.4679 27.5842 71.4679 26.6333C71.4679 25.6824 71.3741 24.8454 71.1814 24.2015C71.0036 23.5478 70.7368 23.0178 70.391 22.6216C70.0452 22.2254 69.6154 21.9381 69.1017 21.7747C68.5879 21.6063 68.005 21.5221 67.3529 21.5221C65.9549 21.5221 64.9224 21.9332 64.2555 22.7553C63.6034 23.5775 63.2724 24.8701 63.2724 26.6333H63.2675ZM61 26.5937C61 24.2015 61.5335 22.4483 62.5956 21.3289C63.6726 20.1997 65.3127 19.6302 67.5208 19.6302C69.729 19.6302 71.2259 20.1948 72.2139 21.3289C73.2118 22.4483 73.7157 24.2015 73.7157 26.5937C73.7157 27.8517 73.5675 28.9264 73.271 29.813C72.9895 30.6896 72.5794 31.4077 72.041 31.9723C71.5025 32.5271 70.8356 32.9282 70.0403 33.1858C69.2597 33.4284 68.3656 33.5523 67.3677 33.5523C66.3698 33.5523 65.5547 33.4284 64.7692 33.1858C63.9887 32.9282 63.3119 32.5221 62.7488 31.9723C62.1955 31.4077 61.7657 30.6846 61.4594 29.813C61.1531 28.9264 61 27.8517 61 26.5937Z" fill="white"/>
<path d="M76.3389 23.0426H84.9938V33.3443H82.9733V24.8949H78.3742V33.3443H76.3389V23.0426Z" fill="white"/>
<path d="M86.9402 31.2047C87.0933 31.2542 87.2613 31.2839 87.4391 31.2839C87.6466 31.2839 87.8442 31.2344 88.0369 31.1304C88.2444 31.0165 88.4271 30.7342 88.5951 30.2835C88.7631 29.8328 88.9014 29.1542 89.0199 28.238C89.1336 27.3267 89.2126 26.0637 89.2521 24.4591L89.2916 23.0525H96.6029V33.3492H94.5824V24.9197H91.1195L91.0997 25.5189C91.0503 27.2177 90.9317 28.5896 90.7539 29.6446C90.5761 30.6995 90.3439 31.5167 90.0623 32.0962C89.7807 32.6756 89.4448 33.0669 89.0644 33.2749C88.6939 33.4829 88.2839 33.582 87.8343 33.582C87.6565 33.582 87.4935 33.577 87.3551 33.5622C87.2267 33.5473 87.0933 33.5176 86.9501 33.4681V31.2096L86.9402 31.2047Z" fill="white"/>
<path d="M101.083 30.1795C101.083 30.6698 101.227 31.0561 101.508 31.3384C101.79 31.6207 102.264 31.7643 102.931 31.7643C103.815 31.7643 104.462 31.5464 104.872 31.1106C105.282 30.6747 105.49 30.1151 105.49 29.4316V28.6392H103.41C102.961 28.6392 102.585 28.6639 102.274 28.7184C101.978 28.7679 101.74 28.862 101.563 28.9908C101.385 29.1047 101.256 29.2682 101.177 29.4712C101.113 29.6644 101.083 29.9021 101.083 30.1844V30.1795ZM105.584 31.8584C105.327 32.3091 104.932 32.7054 104.393 33.052C103.855 33.3839 103.183 33.5523 102.373 33.5523C101.281 33.5523 100.451 33.2799 99.8731 32.74C99.3099 32.1853 99.0283 31.4226 99.0283 30.4469C99.0283 29.3177 99.3544 28.5104 100.011 28.0349C100.663 27.5595 101.75 27.3217 103.262 27.3217H105.495V26.4748C105.495 25.7418 105.307 25.2466 104.937 24.989C104.566 24.7315 103.949 24.6027 103.089 24.6027C102.783 24.6027 102.472 24.6324 102.165 24.6968C101.859 24.7612 101.563 24.8454 101.281 24.9494C100.999 25.0534 100.738 25.1723 100.491 25.3159C100.249 25.4447 100.036 25.5784 99.8533 25.722V23.5626C100.061 23.4487 100.303 23.3447 100.584 23.2556C100.866 23.1664 101.162 23.0872 101.469 23.0228C101.79 22.9584 102.111 22.9138 102.432 22.8891C102.768 22.8494 103.079 22.8296 103.376 22.8296C104.107 22.8296 104.734 22.894 105.263 23.0228C105.786 23.1367 106.216 23.3398 106.552 23.6221C106.898 23.8945 107.15 24.261 107.303 24.7216C107.456 25.1822 107.535 25.7567 107.535 26.4402V33.3443H105.687L105.594 31.8584H105.584Z" fill="white"/>
<path d="M112.515 24.8949H109.19V23.0426H117.845V24.8949H114.535V33.3443H112.515V24.8949Z" fill="white"/>
<path d="M119.604 23.0426H121.644V27.921C121.644 28.4609 121.629 28.9809 121.604 29.4811C121.58 29.9715 121.555 30.3429 121.525 30.6005L121.604 30.6401C121.822 30.2538 122.049 29.8873 122.276 29.5406C122.518 29.1939 122.77 28.8422 123.027 28.4807L126.722 23.0426H128.57V33.3393H126.549V28.1538C126.564 27.822 126.569 27.505 126.569 27.2078C126.584 26.9008 126.594 26.6185 126.609 26.3609C126.624 26.1034 126.633 25.8904 126.648 25.722L126.609 25.7022C126.441 25.9994 126.238 26.3411 125.991 26.7225C125.749 27.1088 125.497 27.4852 125.24 27.8616L121.471 33.3393H119.604V23.0426Z" fill="white"/>
<path d="M133.683 24.8949H130.353V23.0426H139.008V24.8949H135.698V33.3443H133.683V24.8949Z" fill="white"/>
<path d="M142.787 31.7049C143.02 31.7297 143.242 31.7495 143.459 31.7643H144.422C144.921 31.7643 145.341 31.7346 145.672 31.6702C146.003 31.591 146.27 31.4771 146.463 31.3236C146.67 31.1552 146.809 30.9521 146.888 30.7045C146.976 30.4469 147.021 30.13 147.021 29.7585C147.021 29.4118 146.976 29.1146 146.888 28.872C146.809 28.6293 146.665 28.4262 146.443 28.2727C146.226 28.1191 145.919 28.0102 145.519 27.9458C145.134 27.8666 144.635 27.8319 144.017 27.8319C143.825 27.8319 143.632 27.8467 143.439 27.8715C143.247 27.8864 143.029 27.9012 142.787 27.9309V31.7099V31.7049ZM140.767 23.0426H142.807V26.3213C143.103 26.2965 143.39 26.2767 143.672 26.2619C143.968 26.247 144.299 26.2421 144.674 26.2421C145.455 26.2421 146.122 26.3064 146.675 26.4352C147.228 26.5491 147.683 26.7423 148.039 27.0147C148.399 27.2871 148.661 27.6437 148.829 28.0944C148.997 28.5302 149.081 29.0651 149.081 29.6941C149.081 30.3231 148.997 30.8778 148.829 31.3533C148.661 31.8287 148.384 32.2299 147.999 32.5469C147.614 32.8539 147.1 33.0867 146.463 33.2403C145.835 33.3938 145.06 33.473 144.136 33.473C143.484 33.473 142.866 33.4582 142.288 33.4334C141.71 33.4087 141.207 33.374 140.767 33.3393V23.0426Z" fill="white"/>
<path d="M239.051 21.4131V26.5986H241.388C243.705 26.5986 244.905 25.8161 244.905 23.8598C244.905 22.0916 243.868 21.4131 241.423 21.4131H239.046H239.051ZM239.051 28.9561V33.4383H236.552V19.0457H241.21C245.632 19.0457 247.509 20.6702 247.509 23.9192C247.509 27.1682 245.31 28.9561 241.21 28.9561H239.051Z" fill="white"/>
<path d="M254.425 29.8229V28.981H252.449C251.07 28.981 250.408 29.2484 250.408 30.1746C250.408 30.9571 250.967 31.4474 252.009 31.4474C253.59 31.4474 254.326 30.5213 254.43 29.8229H254.425ZM248.823 23.8747C249.485 23.3596 250.68 22.9485 252.404 22.9485C255.324 22.9485 256.766 23.9738 256.766 26.6532V33.4384H254.568V31.5861C254.089 32.7797 252.869 33.6019 251.268 33.6019C249.248 33.6019 248.047 32.4281 248.047 30.4123C248.047 28.0697 249.707 27.411 252.167 27.411H254.425V26.9553C254.425 25.4942 253.748 25.0436 252.404 25.0436C250.562 25.0436 249.504 25.7865 248.823 26.8761V23.8747Z" fill="white"/>
<path d="M257.922 23.1614H260.541L263.277 30.2141L265.515 23.1614H267.995L263.994 34.5378C263.114 37.0093 262.215 37.559 260.896 37.559C260.279 37.559 259.597 37.3758 259.296 37.1034V34.8647C259.597 35.1718 260.056 35.3798 260.496 35.3798C261.217 35.3798 261.756 34.8895 262.136 33.4879L257.922 23.1614Z" fill="white"/>
<g clip-path="url(#clip0_195_454)">
<path fill-rule="evenodd" clip-rule="evenodd" d="M168.295 19.0409C166.744 18.8786 165.18 19.1974 163.818 19.9536C162.457 20.7098 161.365 21.8661 160.692 23.2637C160.019 24.6613 159.799 26.2315 160.061 27.7586C160.324 29.2856 161.056 30.6945 162.157 31.7916C163.258 32.8886 164.675 33.62 166.211 33.8852C167.748 34.1504 169.33 33.9364 170.739 33.2726C172.149 32.6088 173.316 31.5277 174.082 30.1781C174.847 28.8284 175.173 27.2764 175.015 25.7353C174.84 24.0224 174.077 22.4214 172.853 21.2021C171.629 19.9827 170.019 19.2195 168.295 19.0409ZM168.05 30.4658C167.216 30.577 166.367 30.4257 165.624 30.0333C164.881 29.6408 164.28 29.027 163.906 28.2779C163.533 27.5289 163.404 26.6824 163.54 25.8573C163.676 25.0322 164.068 24.2701 164.663 23.6781C165.257 23.086 166.023 22.6938 166.853 22.5565C167.684 22.4192 168.536 22.5438 169.292 22.9127C170.047 23.2816 170.667 23.8763 171.065 24.6132C171.462 25.3502 171.617 26.1922 171.508 27.0211C171.393 27.893 170.992 28.703 170.367 29.3257C169.742 29.9484 168.928 30.3492 168.05 30.4658ZM179.053 19.3375C178.791 19.3381 178.533 19.3967 178.296 19.509C178.06 19.6213 177.852 19.7845 177.688 19.9867C177.523 20.1889 177.406 20.425 177.344 20.6778C177.283 20.9307 177.279 21.1939 177.334 21.4484C177.499 22.2727 178.274 22.836 179.119 22.836H184.02L176.393 32.8607C176.336 32.9347 176.302 33.0229 176.293 33.1153C176.284 33.2077 176.302 33.3007 176.343 33.3839C176.384 33.4671 176.448 33.5372 176.528 33.5863C176.607 33.6354 176.699 33.6616 176.792 33.662H188.757C189.601 33.662 190.376 33.0989 190.542 32.2744C190.596 32.0199 190.593 31.7568 190.531 31.5039C190.47 31.2511 190.353 31.015 190.188 30.8128C190.024 30.6106 189.816 30.4474 189.58 30.335C189.344 30.2227 189.085 30.164 188.823 30.1632H182.852L190.473 20.1463C190.53 20.0716 190.565 19.9825 190.574 19.8892C190.583 19.7959 190.565 19.702 190.523 19.618C190.482 19.534 190.417 19.4633 190.337 19.4137C190.257 19.3642 190.164 19.3378 190.07 19.3375H179.053ZM226.863 19.3779C226.466 19.4714 226.114 19.6964 225.864 20.0157C225.615 20.3349 225.482 20.7293 225.488 21.1336V26.9584L215.985 19.4475C215.91 19.3888 215.82 19.3521 215.726 19.3417C215.631 19.3314 215.536 19.3477 215.45 19.389C215.364 19.4302 215.292 19.4946 215.242 19.5747C215.191 19.6548 215.165 19.7475 215.165 19.842V31.869C215.159 32.2733 215.291 32.6677 215.541 32.987C215.791 33.3062 216.143 33.5312 216.539 33.6247C216.796 33.6809 217.063 33.6791 217.32 33.6193C217.576 33.5595 217.816 33.4433 218.021 33.2793C218.226 33.1153 218.391 32.9076 218.505 32.6716C218.618 32.4356 218.677 32.1773 218.677 31.9157V26.0405L228.181 33.5515C228.255 33.6102 228.345 33.6469 228.439 33.6572C228.534 33.6676 228.629 33.6512 228.715 33.61C228.801 33.5688 228.873 33.5045 228.923 33.4244C228.974 33.3443 229 33.2517 229 33.1572V21.0863C229 20.8248 228.941 20.5666 228.828 20.3307C228.714 20.0947 228.549 19.8871 228.344 19.7232C228.139 19.5592 227.899 19.4431 227.643 19.3833C227.386 19.3235 227.12 19.3217 226.863 19.3779ZM202.118 22.5011C206.137 22.5011 209.141 24.6108 209.141 26.498C209.141 28.3851 206.137 30.4948 202.118 30.4948C198.098 30.4948 195.094 28.3851 195.094 26.498C195.094 24.6108 198.098 22.5011 202.118 22.5011ZM202.118 19.0028C196.299 19.0028 191.582 22.3585 191.582 26.498C191.582 30.6374 196.299 33.9931 202.118 33.9931C207.936 33.9931 212.653 30.6374 212.653 26.498C212.653 22.3585 207.936 19.0028 202.118 19.0028Z" fill="white"/>
</g>
<defs>
<linearGradient id="paint0_linear_195_454" x1="164.387" y1="0" x2="164.387" y2="53.7569" gradientUnits="userSpaceOnUse">
<stop stop-color="#0069FF"/>
<stop offset="1" stop-color="#00409B"/>
</linearGradient>
<clipPath id="clip0_195_454">
<rect width="69" height="15" fill="white" transform="translate(160 18.9999)"/>
</clipPath>
</defs>
</svg>
