<svg width="329" height="54" viewBox="0 0 329 54" fill="none" xmlns="http://www.w3.org/2000/svg">
<path d="M0 8C0 3.58172 3.58172 0 8 0H320.774C325.193 0 328.774 3.58172 328.774 8V45.7569C328.774 50.1752 325.193 53.7569 320.774 53.7569H8C3.58173 53.7569 0 50.1752 0 45.7569V8Z" fill="url(#paint0_linear_195_369)"/>
<path d="M86.7128 26.6333C86.7128 27.5842 86.8066 28.3816 86.9993 29.0255C87.2068 29.6693 87.4884 30.1844 87.8441 30.5707C88.2146 30.957 88.6592 31.2344 89.1729 31.3978C89.6867 31.5662 90.2548 31.6504 90.8871 31.6504C91.5194 31.6504 92.0777 31.5662 92.5816 31.3978C93.0805 31.2294 93.5053 30.9521 93.8511 30.5707C94.1969 30.1844 94.4588 29.6693 94.6415 29.0255C94.8194 28.3816 94.9132 27.5842 94.9132 26.6333C94.9132 25.6824 94.8194 24.8454 94.6267 24.2015C94.4489 23.5478 94.1821 23.0178 93.8363 22.6216C93.4905 22.2254 93.0607 21.9381 92.547 21.7747C92.0332 21.6063 91.4503 21.5221 90.7982 21.5221C89.4002 21.5221 88.3677 21.9332 87.7008 22.7553C87.0487 23.5775 86.7177 24.8702 86.7177 26.6333H86.7128ZM84.4453 26.5937C84.4453 24.2015 84.9788 22.4483 86.0409 21.329C87.1179 20.1997 88.758 19.6302 90.9662 19.6302C93.1744 19.6302 94.6712 20.1948 95.6592 21.329C96.6571 22.4483 97.161 24.2015 97.161 26.5937C97.161 27.8517 97.0128 28.9264 96.7164 29.813C96.4348 30.6896 96.0248 31.4077 95.4863 31.9724C94.9478 32.5271 94.2809 32.9282 93.4856 33.1858C92.7051 33.4285 91.8109 33.5523 90.813 33.5523C89.8151 33.5523 89 33.4285 88.2146 33.1858C87.434 32.9282 86.7572 32.5221 86.1941 31.9724C85.6408 31.4077 85.211 30.6846 84.9047 29.813C84.5985 28.9264 84.4453 27.8517 84.4453 26.5937Z" fill="white"/>
<path d="M99.7842 23.0426H108.439V33.3443H106.419V24.8949H101.819V33.3443H99.7842V23.0426Z" fill="white"/>
<path d="M110.385 31.2047C110.539 31.2542 110.707 31.2839 110.884 31.2839C111.092 31.2839 111.29 31.2344 111.482 31.1304C111.69 31.0165 111.872 30.7342 112.04 30.2835C112.208 29.8328 112.347 29.1543 112.465 28.238C112.579 27.3267 112.658 26.0638 112.697 24.4591L112.737 23.0525H120.048V33.3492H118.028V24.9197H114.565L114.545 25.519C114.496 27.2177 114.377 28.5896 114.199 29.6446C114.021 30.6995 113.789 31.5167 113.508 32.0962C113.226 32.6756 112.89 33.0669 112.51 33.2749C112.139 33.4829 111.729 33.582 111.28 33.582C111.102 33.582 110.939 33.577 110.8 33.5622C110.672 33.5473 110.539 33.5176 110.395 33.4681V31.2096L110.385 31.2047Z" fill="white"/>
<path d="M124.529 30.1795C124.529 30.6698 124.672 31.0561 124.954 31.3384C125.235 31.6207 125.709 31.7643 126.376 31.7643C127.261 31.7643 127.908 31.5464 128.318 31.1106C128.728 30.6747 128.935 30.1151 128.935 29.4316V28.6392H126.855C126.406 28.6392 126.03 28.6639 125.719 28.7184C125.423 28.7679 125.186 28.862 125.008 28.9908C124.83 29.1047 124.702 29.2682 124.623 29.4712C124.558 29.6644 124.529 29.9021 124.529 30.1844V30.1795ZM129.029 31.8584C128.772 32.3091 128.377 32.7054 127.839 33.0521C127.3 33.3839 126.628 33.5523 125.818 33.5523C124.726 33.5523 123.896 33.2799 123.318 32.74C122.755 32.1853 122.474 31.4226 122.474 30.4469C122.474 29.3177 122.8 28.5104 123.457 28.0349C124.109 27.5595 125.196 27.3218 126.707 27.3218H128.94V26.4748C128.94 25.7418 128.752 25.2466 128.382 24.989C128.011 24.7315 127.394 24.6027 126.534 24.6027C126.228 24.6027 125.917 24.6324 125.611 24.6968C125.304 24.7612 125.008 24.8454 124.726 24.9494C124.445 25.0534 124.183 25.1723 123.936 25.3159C123.694 25.4447 123.481 25.5784 123.299 25.722V23.5626C123.506 23.4487 123.748 23.3447 124.03 23.2556C124.311 23.1664 124.608 23.0872 124.914 23.0228C125.235 22.9584 125.556 22.9138 125.877 22.8891C126.213 22.8494 126.524 22.8296 126.821 22.8296C127.552 22.8296 128.179 22.894 128.708 23.0228C129.232 23.1367 129.661 23.3398 129.997 23.6221C130.343 23.8945 130.595 24.261 130.748 24.7216C130.901 25.1822 130.98 25.7567 130.98 26.4402V33.3443H129.133L129.039 31.8584H129.029Z" fill="white"/>
<path d="M135.96 24.8949H132.635V23.0426H141.29V24.8949H137.98V33.3443H135.96V24.8949Z" fill="white"/>
<path d="M143.049 23.0426H145.089V27.921C145.089 28.4609 145.074 28.9809 145.05 29.4811C145.025 29.9715 145 30.3429 144.971 30.6005L145.05 30.6401C145.267 30.2538 145.494 29.8873 145.722 29.5406C145.964 29.1939 146.216 28.8422 146.473 28.4807L150.168 23.0426H152.015V33.3393H149.995V28.1538C150.01 27.822 150.015 27.505 150.015 27.2078C150.029 26.9008 150.039 26.6185 150.054 26.3609C150.069 26.1034 150.079 25.8904 150.094 25.722L150.054 25.7022C149.886 25.9994 149.684 26.3411 149.437 26.7225C149.194 27.1088 148.943 27.4852 148.686 27.8616L144.916 33.3393H143.049V23.0426Z" fill="white"/>
<path d="M157.128 24.8949H153.799V23.0426H162.454V24.8949H159.144V33.3443H157.128V24.8949Z" fill="white"/>
<path d="M166.233 31.7049C166.465 31.7297 166.687 31.7495 166.904 31.7643H167.868C168.367 31.7643 168.787 31.7346 169.118 31.6702C169.449 31.591 169.715 31.4771 169.908 31.3236C170.116 31.1552 170.254 30.9521 170.333 30.7045C170.422 30.4469 170.466 30.1299 170.466 29.7585C170.466 29.4118 170.422 29.1146 170.333 28.872C170.254 28.6293 170.111 28.4262 169.888 28.2727C169.671 28.1191 169.365 28.0102 168.964 27.9458C168.579 27.8665 168.08 27.8319 167.463 27.8319C167.27 27.8319 167.077 27.8467 166.885 27.8715C166.692 27.8864 166.475 27.9012 166.233 27.9309V31.7099V31.7049ZM164.212 23.0426H166.252V26.3213C166.549 26.2965 166.835 26.2767 167.117 26.2619C167.413 26.247 167.744 26.2421 168.12 26.2421C168.9 26.2421 169.567 26.3064 170.12 26.4352C170.674 26.5491 171.128 26.7423 171.484 27.0147C171.845 27.2871 172.106 27.6437 172.274 28.0944C172.442 28.5302 172.526 29.0651 172.526 29.6941C172.526 30.3231 172.442 30.8778 172.274 31.3533C172.106 31.8287 171.83 32.2299 171.444 32.5469C171.059 32.8539 170.545 33.0867 169.908 33.2403C169.281 33.3938 168.505 33.473 167.581 33.473C166.929 33.473 166.312 33.4582 165.734 33.4334C165.156 33.4086 164.652 33.374 164.212 33.3393V23.0426Z" fill="white"/>
<path d="M214.497 21.4131V26.5987H216.833C219.15 26.5987 220.351 25.8161 220.351 23.8598C220.351 22.0917 219.313 21.4131 216.868 21.4131H214.492H214.497ZM214.497 28.9561V33.4384H211.997V19.0457H216.656C221.077 19.0457 222.954 20.6702 222.954 23.9192C222.954 27.1682 220.756 28.9561 216.656 28.9561H214.497Z" fill="white"/>
<path d="M229.87 29.8229V28.9809H227.894C226.516 28.9809 225.854 29.2484 225.854 30.1745C225.854 30.957 226.412 31.4474 227.454 31.4474C229.035 31.4474 229.771 30.5212 229.875 29.8229H229.87ZM224.268 23.8747C224.93 23.3596 226.125 22.9485 227.85 22.9485C230.769 22.9485 232.212 23.9737 232.212 26.6531V33.4384H230.013V31.586C229.534 32.7797 228.314 33.6018 226.713 33.6018C224.693 33.6018 223.492 32.428 223.492 30.4122C223.492 28.0696 225.152 27.4109 227.612 27.4109H229.87V26.9552C229.87 25.4942 229.193 25.0435 227.85 25.0435C226.007 25.0435 224.95 25.7864 224.268 26.876V23.8747Z" fill="white"/>
<path d="M233.368 23.1615H235.986L238.723 30.2141L240.961 23.1615H243.44L239.439 34.5379C238.56 37.0093 237.661 37.559 236.342 37.559C235.724 37.559 235.042 37.3758 234.741 37.1034V34.8647C235.042 35.1718 235.502 35.3798 235.941 35.3798C236.663 35.3798 237.201 34.8895 237.582 33.4879L233.368 23.1615Z" fill="white"/>
<path d="M189.11 23.8895V27.0494L193.181 29.6743L202.922 22.2898C202.576 21.5073 202.147 20.7742 201.638 20.1056L193.176 26.5194L189.105 23.8945L189.11 23.8895Z" fill="white"/>
<path d="M201.401 26.5937C201.401 26.668 201.401 26.7472 201.401 26.8215C201.401 31.487 197.71 35.2808 193.18 35.2808C188.65 35.2808 184.955 31.487 184.955 26.8215C184.955 22.1561 188.645 18.3623 193.175 18.3623C194.895 18.3623 196.49 18.9071 197.809 19.8382L199.889 18.2583C198.056 16.7328 195.715 15.8166 193.17 15.8166C187.262 15.8166 182.48 20.7445 182.48 26.8166C182.48 32.8886 187.267 37.8166 193.17 37.8166C199.074 37.8166 203.861 32.8886 203.861 26.8166C203.861 26.143 203.801 25.4843 203.688 24.8454L201.396 26.5887L201.401 26.5937Z" fill="white"/>
<defs>
<linearGradient id="paint0_linear_195_369" x1="164.387" y1="53.7569" x2="164.387" y2="0" gradientUnits="userSpaceOnUse">
<stop stop-color="#67CDB0"/>
<stop offset="1" stop-color="#80CB67"/>
</linearGradient>
</defs>
</svg>
