<svg width="329" height="54" viewBox="0 0 329 54" fill="none" xmlns="http://www.w3.org/2000/svg">
<rect width="328.774" height="53.7569" rx="8" fill="url(#paint0_linear_195_431)"/>
<path d="M81.2675 26.6333C81.2675 27.5842 81.3613 28.3816 81.554 29.0255C81.7615 29.6693 82.0431 30.1844 82.3987 30.5707C82.7692 30.957 83.2139 31.2344 83.7276 31.3978C84.2414 31.5662 84.8095 31.6504 85.4418 31.6504C86.0741 31.6504 86.6324 31.5662 87.1362 31.3978C87.6352 31.2294 88.06 30.9521 88.4058 30.5707C88.7516 30.1844 89.0135 29.6693 89.1962 29.0255C89.3741 28.3816 89.4679 27.5842 89.4679 26.6333C89.4679 25.6824 89.3741 24.8454 89.1814 24.2015C89.0036 23.5478 88.7368 23.0178 88.391 22.6216C88.0452 22.2254 87.6154 21.9381 87.1017 21.7747C86.5879 21.6063 86.005 21.5221 85.3529 21.5221C83.9549 21.5221 82.9224 21.9332 82.2555 22.7553C81.6034 23.5775 81.2724 24.8701 81.2724 26.6333H81.2675ZM79 26.5937C79 24.2015 79.5335 22.4483 80.5956 21.3289C81.6726 20.1997 83.3127 19.6302 85.5208 19.6302C87.729 19.6302 89.2259 20.1948 90.2139 21.3289C91.2118 22.4483 91.7157 24.2015 91.7157 26.5937C91.7157 27.8517 91.5675 28.9264 91.271 29.813C90.9895 30.6896 90.5794 31.4077 90.041 31.9723C89.5025 32.5271 88.8356 32.9282 88.0403 33.1858C87.2597 33.4284 86.3656 33.5523 85.3677 33.5523C84.3698 33.5523 83.5547 33.4284 82.7692 33.1858C81.9887 32.9282 81.3119 32.5221 80.7488 31.9723C80.1955 31.4077 79.7657 30.6846 79.4594 29.813C79.1531 28.9264 79 27.8517 79 26.5937Z" fill="#303030"/>
<path d="M94.3389 23.0426H102.994V33.3443H100.973V24.8949H96.3742V33.3443H94.3389V23.0426Z" fill="#303030"/>
<path d="M104.94 31.2047C105.093 31.2542 105.261 31.2839 105.439 31.2839C105.647 31.2839 105.844 31.2344 106.037 31.1304C106.244 31.0165 106.427 30.7342 106.595 30.2835C106.763 29.8328 106.901 29.1542 107.02 28.238C107.134 27.3267 107.213 26.0637 107.252 24.4591L107.292 23.0525H114.603V33.3492H112.582V24.9197H109.119L109.1 25.5189C109.05 27.2177 108.932 28.5896 108.754 29.6446C108.576 30.6995 108.344 31.5167 108.062 32.0962C107.781 32.6756 107.445 33.0669 107.064 33.2749C106.694 33.4829 106.284 33.582 105.834 33.582C105.656 33.582 105.493 33.577 105.355 33.5622C105.227 33.5473 105.093 33.5176 104.95 33.4681V31.2096L104.94 31.2047Z" fill="#303030"/>
<path d="M119.083 30.1795C119.083 30.6698 119.227 31.0561 119.508 31.3384C119.79 31.6207 120.264 31.7643 120.931 31.7643C121.815 31.7643 122.462 31.5464 122.872 31.1106C123.282 30.6747 123.49 30.1151 123.49 29.4316V28.6392H121.41C120.961 28.6392 120.585 28.6639 120.274 28.7184C119.978 28.7679 119.74 28.862 119.563 28.9908C119.385 29.1047 119.256 29.2682 119.177 29.4712C119.113 29.6644 119.083 29.9021 119.083 30.1844V30.1795ZM123.584 31.8584C123.327 32.3091 122.932 32.7054 122.393 33.052C121.855 33.3839 121.183 33.5523 120.373 33.5523C119.281 33.5523 118.451 33.2799 117.873 32.74C117.31 32.1853 117.028 31.4226 117.028 30.4469C117.028 29.3177 117.354 28.5104 118.011 28.0349C118.663 27.5595 119.75 27.3217 121.262 27.3217H123.495V26.4748C123.495 25.7418 123.307 25.2466 122.937 24.989C122.566 24.7315 121.949 24.6027 121.089 24.6027C120.783 24.6027 120.472 24.6324 120.165 24.6968C119.859 24.7612 119.563 24.8454 119.281 24.9494C118.999 25.0534 118.738 25.1723 118.491 25.3159C118.249 25.4447 118.036 25.5784 117.853 25.722V23.5626C118.061 23.4487 118.303 23.3447 118.584 23.2556C118.866 23.1664 119.162 23.0872 119.469 23.0228C119.79 22.9584 120.111 22.9138 120.432 22.8891C120.768 22.8494 121.079 22.8296 121.376 22.8296C122.107 22.8296 122.734 22.894 123.263 23.0228C123.786 23.1367 124.216 23.3398 124.552 23.6221C124.898 23.8945 125.15 24.261 125.303 24.7216C125.456 25.1822 125.535 25.7567 125.535 26.4402V33.3443H123.687L123.594 31.8584H123.584Z" fill="#303030"/>
<path d="M130.515 24.8949H127.19V23.0426H135.845V24.8949H132.535V33.3443H130.515V24.8949Z" fill="#303030"/>
<path d="M137.604 23.0426H139.644V27.921C139.644 28.4609 139.629 28.9809 139.604 29.4811C139.58 29.9715 139.555 30.3429 139.525 30.6005L139.604 30.6401C139.822 30.2538 140.049 29.8873 140.276 29.5406C140.518 29.1939 140.77 28.8422 141.027 28.4807L144.722 23.0426H146.57V33.3393H144.549V28.1538C144.564 27.822 144.569 27.505 144.569 27.2078C144.584 26.9008 144.594 26.6185 144.609 26.3609C144.624 26.1034 144.633 25.8904 144.648 25.722L144.609 25.7022C144.441 25.9994 144.238 26.3411 143.991 26.7225C143.749 27.1088 143.497 27.4852 143.24 27.8616L139.471 33.3393H137.604V23.0426Z" fill="#303030"/>
<path d="M151.683 24.8949H148.353V23.0426H157.008V24.8949H153.698V33.3443H151.683V24.8949Z" fill="#303030"/>
<path d="M160.787 31.7049C161.02 31.7297 161.242 31.7495 161.459 31.7643H162.422C162.921 31.7643 163.341 31.7346 163.672 31.6702C164.003 31.591 164.27 31.4771 164.463 31.3236C164.67 31.1552 164.809 30.9521 164.888 30.7045C164.976 30.4469 165.021 30.13 165.021 29.7585C165.021 29.4118 164.976 29.1146 164.888 28.872C164.809 28.6293 164.665 28.4262 164.443 28.2727C164.226 28.1191 163.919 28.0102 163.519 27.9458C163.134 27.8666 162.635 27.8319 162.017 27.8319C161.825 27.8319 161.632 27.8467 161.439 27.8715C161.247 27.8864 161.029 27.9012 160.787 27.9309V31.7099V31.7049ZM158.767 23.0426H160.807V26.3213C161.103 26.2965 161.39 26.2767 161.672 26.2619C161.968 26.247 162.299 26.2421 162.674 26.2421C163.455 26.2421 164.122 26.3064 164.675 26.4352C165.228 26.5491 165.683 26.7423 166.039 27.0147C166.399 27.2871 166.661 27.6437 166.829 28.0944C166.997 28.5302 167.081 29.0651 167.081 29.6941C167.081 30.3231 166.997 30.8778 166.829 31.3533C166.661 31.8287 166.384 32.2299 165.999 32.5469C165.614 32.8539 165.1 33.0867 164.463 33.2403C163.835 33.3938 163.06 33.473 162.136 33.473C161.484 33.473 160.866 33.4582 160.288 33.4334C159.71 33.4087 159.207 33.374 158.767 33.3393V23.0426Z" fill="#303030"/>
<g clip-path="url(#clip0_195_431)">
<path d="M234.041 11.3193H191.959C183.697 11.3193 177 18.1595 177 26.5973C177 35.0351 183.697 41.8753 191.959 41.8753H234.041C242.303 41.8753 249 35.0351 249 26.5973C249 18.1595 242.303 11.3193 234.041 11.3193Z" fill="#303030"/>
<path d="M213.997 22.0717H208.027V31.81H210.931V29.1904H213.995C214.715 29.1904 215.416 29.1687 216.098 28.9453C217.421 28.5151 218.402 27.3086 218.402 25.6719C218.402 24.0352 217.44 22.848 216.138 22.3793C215.418 22.1126 214.736 22.0717 213.995 22.0717H213.997ZM210.933 26.9V24.4246H213.578C214.138 24.4246 214.46 24.487 214.719 24.588C215.18 24.7731 215.399 25.2008 215.399 25.6527C215.399 26.1429 215.138 26.614 214.639 26.7774C214.399 26.8592 214.119 26.9 213.578 26.9H210.933Z" fill="white"/>
<path d="M222.567 28.2507L223.948 24.3237H224.169L225.551 28.2507H222.567ZM221.847 30.3993H226.254L226.814 31.81H230.078L226.172 22.0717H221.925L218.018 31.81H221.303L221.845 30.3993H221.847Z" fill="white"/>
<path d="M237.147 22.0717L234.785 26.5107H234.683L232.3 22.0717H228.916L233.222 29.2312V31.81H236.227V28.9861L240.315 22.0717H237.147Z" fill="white"/>
<path d="M185.688 19.1828H201.821V27.4696C201.821 29.5941 200.711 31.5577 198.91 32.6199L193.755 35.6601L188.599 32.6199C186.796 31.5577 185.688 29.5941 185.688 27.4696V19.1828Z" fill="#FFDD2D"/>
<path fill-rule="evenodd" clip-rule="evenodd" d="M190.114 23.5453V26.1216C190.46 25.7227 191.086 25.4535 191.804 25.4535H192.583V28.4505C192.583 29.2483 192.371 29.9453 192.056 30.3299H195.446C195.133 29.9453 194.922 29.2483 194.922 28.4528V25.4559H195.701C196.418 25.4559 197.047 25.7251 197.39 26.124V23.5476H190.112L190.114 23.5453Z" fill="#333333"/>
</g>
<defs>
<linearGradient id="paint0_linear_195_431" x1="164.387" y1="53.7569" x2="164.387" y2="0" gradientUnits="userSpaceOnUse">
<stop stop-color="#FFDD2D"/>
<stop offset="1" stop-color="#FFE874"/>
</linearGradient>
<clipPath id="clip0_195_431">
<rect width="72" height="31" fill="white" transform="translate(177 11.0001)"/>
</clipPath>
</defs>
</svg>
