<svg width="329" height="54" viewBox="0 0 329 54" fill="none" xmlns="http://www.w3.org/2000/svg">
<rect width="328.774" height="53.7569" rx="8" fill="url(#paint0_linear_195_391)"/>
<path d="M80.2675 26.6333C80.2675 27.5842 80.3613 28.3816 80.554 29.0255C80.7615 29.6693 81.0431 30.1844 81.3987 30.5707C81.7692 30.9571 82.2139 31.2344 82.7276 31.3978C83.2414 31.5662 83.8095 31.6504 84.4418 31.6504C85.0741 31.6504 85.6324 31.5662 86.1362 31.3978C86.6352 31.2295 87.06 30.9521 87.4058 30.5707C87.7516 30.1844 88.0135 29.6693 88.1962 29.0255C88.3741 28.3816 88.4679 27.5842 88.4679 26.6333C88.4679 25.6824 88.3741 24.8454 88.1814 24.2015C88.0036 23.5478 87.7368 23.0178 87.391 22.6216C87.0452 22.2254 86.6154 21.9381 86.1017 21.7747C85.5879 21.6063 85.005 21.5221 84.3529 21.5221C82.9549 21.5221 81.9224 21.9332 81.2555 22.7553C80.6034 23.5775 80.2724 24.8702 80.2724 26.6333H80.2675ZM78 26.5937C78 24.2015 78.5335 22.4483 79.5956 21.329C80.6726 20.1997 82.3127 19.6302 84.5208 19.6302C86.729 19.6302 88.2259 20.1948 89.2139 21.329C90.2118 22.4483 90.7157 24.2015 90.7157 26.5937C90.7157 27.8517 90.5675 28.9264 90.271 29.813C89.9895 30.6896 89.5794 31.4078 89.041 31.9724C88.5025 32.5271 87.8356 32.9282 87.0403 33.1858C86.2597 33.4285 85.3656 33.5523 84.3677 33.5523C83.3698 33.5523 82.5547 33.4285 81.7692 33.1858C80.9887 32.9282 80.3119 32.5221 79.7488 31.9724C79.1955 31.4078 78.7657 30.6847 78.4594 29.813C78.1531 28.9264 78 27.8517 78 26.5937Z" fill="white"/>
<path d="M93.3389 23.0426H101.994V33.3443H99.9733V24.8949H95.3742V33.3443H93.3389V23.0426Z" fill="white"/>
<path d="M103.94 31.2047C104.093 31.2542 104.261 31.2839 104.439 31.2839C104.647 31.2839 104.844 31.2344 105.037 31.1304C105.244 31.0165 105.427 30.7342 105.595 30.2835C105.763 29.8328 105.901 29.1543 106.02 28.238C106.134 27.3267 106.213 26.0638 106.252 24.4591L106.292 23.0525H113.603V33.3492H111.582V24.9197H108.119L108.1 25.519C108.05 27.2177 107.932 28.5897 107.754 29.6446C107.576 30.6995 107.344 31.5167 107.062 32.0962C106.781 32.6756 106.445 33.0669 106.064 33.2749C105.694 33.4829 105.284 33.582 104.834 33.582C104.656 33.582 104.493 33.577 104.355 33.5622C104.227 33.5473 104.093 33.5176 103.95 33.4681V31.2096L103.94 31.2047Z" fill="white"/>
<path d="M118.083 30.1795C118.083 30.6698 118.227 31.0561 118.508 31.3384C118.79 31.6207 119.264 31.7643 119.931 31.7643C120.815 31.7643 121.462 31.5464 121.872 31.1106C122.282 30.6747 122.49 30.1151 122.49 29.4316V28.6392H120.41C119.961 28.6392 119.585 28.6639 119.274 28.7184C118.978 28.7679 118.74 28.862 118.563 28.9908C118.385 29.1047 118.256 29.2682 118.177 29.4712C118.113 29.6644 118.083 29.9021 118.083 30.1844V30.1795ZM122.584 31.8584C122.327 32.3091 121.932 32.7054 121.393 33.0521C120.855 33.3839 120.183 33.5523 119.373 33.5523C118.281 33.5523 117.451 33.2799 116.873 32.74C116.31 32.1853 116.028 31.4226 116.028 30.4469C116.028 29.3177 116.354 28.5104 117.011 28.0349C117.663 27.5595 118.75 27.3217 120.262 27.3217H122.495V26.4748C122.495 25.7418 122.307 25.2466 121.937 24.989C121.566 24.7315 120.949 24.6027 120.089 24.6027C119.783 24.6027 119.472 24.6324 119.165 24.6968C118.859 24.7612 118.563 24.8454 118.281 24.9494C117.999 25.0534 117.738 25.1723 117.491 25.3159C117.249 25.4447 117.036 25.5784 116.853 25.722V23.5626C117.061 23.4487 117.303 23.3447 117.584 23.2556C117.866 23.1664 118.162 23.0872 118.469 23.0228C118.79 22.9584 119.111 22.9138 119.432 22.8891C119.768 22.8494 120.079 22.8296 120.376 22.8296C121.107 22.8296 121.734 22.894 122.263 23.0228C122.786 23.1367 123.216 23.3398 123.552 23.6221C123.898 23.8945 124.15 24.261 124.303 24.7216C124.456 25.1822 124.535 25.7567 124.535 26.4402V33.3443H122.687L122.594 31.8584H122.584Z" fill="white"/>
<path d="M129.515 24.8949H126.19V23.0426H134.845V24.8949H131.535V33.3443H129.515V24.8949Z" fill="white"/>
<path d="M136.604 23.0426H138.644V27.921C138.644 28.4609 138.629 28.9809 138.604 29.4811C138.58 29.9715 138.555 30.3429 138.525 30.6005L138.604 30.6401C138.822 30.2538 139.049 29.8873 139.276 29.5406C139.518 29.1939 139.77 28.8422 140.027 28.4807L143.722 23.0426H145.57V33.3393H143.549V28.1538C143.564 27.822 143.569 27.505 143.569 27.2078C143.584 26.9008 143.594 26.6185 143.609 26.3609C143.624 26.1034 143.633 25.8904 143.648 25.722L143.609 25.7022C143.441 25.9994 143.238 26.3411 142.991 26.7225C142.749 27.1088 142.497 27.4852 142.24 27.8616L138.471 33.3393H136.604V23.0426Z" fill="white"/>
<path d="M150.683 24.8949H147.353V23.0426H156.008V24.8949H152.698V33.3443H150.683V24.8949Z" fill="white"/>
<path d="M159.787 31.7049C160.02 31.7297 160.242 31.7495 160.459 31.7643H161.422C161.921 31.7643 162.341 31.7346 162.672 31.6702C163.003 31.591 163.27 31.4771 163.463 31.3235C163.67 31.1552 163.809 30.9521 163.888 30.7045C163.976 30.4469 164.021 30.1299 164.021 29.7585C164.021 29.4118 163.976 29.1146 163.888 28.872C163.809 28.6293 163.665 28.4262 163.443 28.2727C163.226 28.1191 162.919 28.0102 162.519 27.9458C162.134 27.8665 161.635 27.8319 161.017 27.8319C160.825 27.8319 160.632 27.8467 160.439 27.8715C160.247 27.8864 160.029 27.9012 159.787 27.9309V31.7099V31.7049ZM157.767 23.0426H159.807V26.3213C160.103 26.2965 160.39 26.2767 160.672 26.2619C160.968 26.247 161.299 26.2421 161.674 26.2421C162.455 26.2421 163.122 26.3064 163.675 26.4352C164.228 26.5491 164.683 26.7423 165.039 27.0147C165.399 27.2871 165.661 27.6437 165.829 28.0944C165.997 28.5302 166.081 29.0651 166.081 29.6941C166.081 30.3231 165.997 30.8778 165.829 31.3533C165.661 31.8287 165.384 32.2299 164.999 32.5469C164.614 32.8539 164.1 33.0867 163.463 33.2403C162.835 33.3938 162.06 33.473 161.136 33.473C160.484 33.473 159.866 33.4582 159.288 33.4334C158.71 33.4086 158.207 33.374 157.767 33.3393V23.0426Z" fill="white"/>
<path d="M221.051 21.4131V26.5986H223.388C225.705 26.5986 226.905 25.8161 226.905 23.8598C226.905 22.0916 225.868 21.4131 223.423 21.4131H221.046H221.051ZM221.051 28.9561V33.4383H218.552V19.0457H223.21C227.632 19.0457 229.509 20.6702 229.509 23.9192C229.509 27.1682 227.31 28.9561 223.21 28.9561H221.051Z" fill="white"/>
<path d="M236.425 29.8229V28.981H234.449C233.07 28.981 232.408 29.2484 232.408 30.1746C232.408 30.9571 232.967 31.4474 234.009 31.4474C235.59 31.4474 236.326 30.5213 236.43 29.8229H236.425ZM230.823 23.8747C231.485 23.3596 232.68 22.9485 234.404 22.9485C237.324 22.9485 238.766 23.9738 238.766 26.6532V33.4384H236.568V31.5861C236.089 32.7797 234.869 33.6019 233.268 33.6019C231.248 33.6019 230.047 32.4281 230.047 30.4123C230.047 28.0697 231.707 27.411 234.167 27.411H236.425V26.9553C236.425 25.4942 235.748 25.0436 234.404 25.0436C232.562 25.0436 231.504 25.7865 230.823 26.8761V23.8747Z" fill="white"/>
<path d="M239.922 23.1614H242.541L245.277 30.2141L247.515 23.1614H249.995L245.994 34.5378C245.114 37.0093 244.215 37.559 242.896 37.559C242.279 37.559 241.597 37.3758 241.296 37.1034V34.8647C241.597 35.1718 242.056 35.3798 242.496 35.3798C243.217 35.3798 243.756 34.8895 244.136 33.4879L239.922 23.1614Z" fill="white"/>
<path fill-rule="evenodd" clip-rule="evenodd" d="M183.167 16.9999L181.263 22.0008H207.65L209.555 16.9999H183.167ZM180.31 24.5001L178.406 29.4998H204.794L206.698 24.5001H180.31ZM177.459 32.0002L175.555 36.9999H201.943L203.846 32.0002H177.459Z" fill="white"/>
<defs>
<linearGradient id="paint0_linear_195_391" x1="164.387" y1="0" x2="164.387" y2="53.7569" gradientUnits="userSpaceOnUse">
<stop stop-color="#009FDF"/>
<stop offset="1" stop-color="#235EFC"/>
</linearGradient>
</defs>
</svg>
